<!DOCTYPE svg PUBLIC "-//W3C//DTD SVG 20010904//EN" "http://www.w3.org/TR/2001/REC-SVG-20010904/DTD/svg10.dtd">
<svg version="1.0" xmlns="http://www.w3.org/2000/svg" width="753px" height="776px" viewBox="0 0 7530 7760" preserveAspectRatio="xMidYMid meet">
<g id="layer101" fill="#000000" stroke="none">
 <path d="M0 3880 l0 -3880 3765 0 3765 0 0 3880 0 3880 -3765 0 -3765 0 0 -3880z"/>
 </g>
<g id="layer102" fill="#373838" stroke="none">
 <path d="M0 3880 l0 -3880 3765 0 3765 0 0 3880 0 3880 -3765 0 -3765 0 0 -3880z m3030 3165 l695 -695 908 0 c499 0 907 3 907 7 0 5 -309 317 -687 695 l-688 688 1565 0 c1519 0 1566 -1 1607 -20 48 -21 123 -92 150 -141 17 -33 18 -104 21 -1609 l2 -1575 -143 143 -142 142 -915 0 -915 0 1058 -1058 1057 -1057 -2 -1176 -3 -1176 -36 -51 c-35 -50 -76 -84 -139 -117 -26 -13 -428 -15 -3557 -15 -3446 0 -3529 1 -3570 19 -59 27 -128 94 -158 154 l-25 51 0 3625 c0 2342 4 3638 10 3661 16 57 91 144 151 174 l53 26 1050 0 1051 0 695 -695z"/>
 <path d="M592 6193 l3 -28 2575 0 2575 0 0 25 0 25 -2578 3 -2578 2 3 -27z"/>
 <path d="M1470 6064 c0 -4 9 -26 19 -48 10 -23 55 -124 100 -226 44 -102 85 -196 92 -210 6 -14 39 -90 74 -170 l64 -145 85 -3 c89 -3 96 1 76 38 -8 15 0 13 40 -12 63 -39 137 -49 176 -23 24 15 26 22 22 64 -3 25 -12 62 -20 81 -9 19 -51 116 -94 215 -114 263 -144 303 -248 329 -36 9 -92 -9 -111 -37 -8 -11 -18 -18 -21 -14 -4 3 -21 41 -38 84 l-32 78 -92 3 c-51 1 -92 0 -92 -4z m376 -284 c17 -31 84 -177 84 -184 0 -3 15 -39 34 -79 45 -95 53 -127 33 -127 -33 0 -49 15 -76 69 -47 92 -141 317 -141 335 0 27 48 16 66 -14z"/>
 <path d="M3540 6058 c0 -9 12 -41 26 -71 22 -49 30 -57 59 -63 19 -3 38 -11 43 -18 5 -6 44 -154 86 -328 l78 -318 94 0 c61 0 94 4 94 11 0 6 -11 38 -24 72 -13 34 -30 80 -36 102 -7 22 -18 54 -26 70 -15 34 -63 179 -60 182 1 1 53 -97 116 -217 l115 -219 92 -1 93 0 -21 38 c-12 20 -42 69 -67 107 -26 39 -52 81 -60 95 -7 14 -20 32 -28 41 -8 8 -14 19 -14 22 0 4 -26 47 -57 95 -32 48 -63 98 -71 112 -7 14 -19 32 -26 40 -6 8 -17 26 -24 40 -7 14 -35 55 -62 92 -65 88 -118 117 -236 125 -71 5 -84 4 -84 -9z"/>
 <path d="M2184 5949 c-23 -5 -52 -21 -65 -35 -41 -43 -32 -96 46 -274 110 -253 145 -308 218 -346 121 -61 275 -58 321 7 30 43 17 102 -55 256 l-39 83 -129 0 -128 0 -32 70 c-36 82 -39 110 -12 110 27 0 49 -24 76 -87 l24 -53 90 0 c56 0 91 4 91 10 0 21 -60 130 -91 164 -65 75 -213 119 -315 95z m292 -447 c16 -10 44 -68 44 -91 0 -23 -18 -32 -42 -19 -23 11 -61 86 -54 104 6 15 34 18 52 6z"/>
 <path d="M2694 5949 c-23 -5 -52 -21 -65 -35 -41 -43 -32 -96 46 -274 130 -298 157 -333 295 -376 58 -18 151 -18 195 0 71 30 81 91 34 204 l-22 52 -93 0 c-52 0 -94 -2 -94 -5 0 -3 9 -23 20 -45 11 -22 20 -48 20 -59 0 -26 -25 -33 -49 -13 -23 19 -181 371 -181 402 0 27 35 26 58 0 9 -11 29 -48 44 -83 l26 -62 96 -3 96 -3 -26 58 c-57 131 -97 177 -189 219 -58 27 -153 37 -211 23z"/>
 <path d="M3214 5949 c-23 -5 -52 -21 -65 -35 -41 -43 -32 -96 46 -274 130 -298 157 -333 295 -376 58 -18 151 -18 195 0 71 30 81 91 34 204 l-22 52 -93 0 c-52 0 -94 -2 -94 -5 0 -3 9 -23 20 -45 11 -22 20 -48 20 -59 0 -26 -25 -33 -49 -13 -23 19 -181 371 -181 402 0 27 35 26 58 0 9 -11 29 -48 44 -83 l26 -62 96 -3 96 -3 -26 58 c-57 131 -97 177 -189 219 -58 27 -153 37 -211 23z"/>
 <path d="M1082 5934 c-69 -35 -78 -113 -29 -230 l25 -59 96 -3 c54 -1 96 1 96 7 0 5 -9 28 -20 52 -32 72 -24 99 30 99 10 0 32 -16 49 -35 48 -55 43 -89 -24 -172 -62 -77 -95 -137 -95 -174 0 -119 116 -269 242 -314 61 -22 165 -29 215 -16 49 13 93 60 93 99 0 24 -39 147 -55 172 -8 12 -185 13 -185 1 0 -5 9 -29 21 -55 11 -25 17 -51 14 -56 -3 -6 -21 -10 -40 -10 -25 0 -40 8 -59 31 -14 17 -26 35 -26 40 0 22 33 87 70 136 22 29 40 55 40 58 0 3 10 19 21 35 35 47 22 134 -36 240 -22 40 -86 96 -150 131 -54 30 -69 33 -160 36 -79 3 -107 0 -133 -13z"/>
 <path d="M4952 5939 c-48 -14 -74 -62 -67 -118 7 -46 211 -523 247 -575 68 -99 136 -137 254 -144 140 -8 191 25 182 116 -7 69 -220 552 -274 617 -58 71 -129 106 -230 111 -43 2 -94 -1 -112 -7z m191 -156 c19 -22 227 -494 227 -517 0 -28 -30 -31 -55 -5 -23 24 -235 497 -235 525 0 20 44 18 63 -3z"/>
 <path d="M6004 5940 c-50 -16 -69 -45 -68 -104 1 -43 22 -98 115 -311 148 -338 187 -387 329 -419 81 -18 93 -18 157 0 114 31 111 79 -21 384 -54 124 -109 245 -121 270 -61 120 -152 179 -282 186 -43 2 -92 -1 -109 -6z m188 -157 c19 -21 228 -497 228 -517 0 -25 -21 -29 -47 -10 -16 13 -60 99 -134 267 -60 136 -109 255 -109 263 0 20 44 18 62 -3z"/>
 <path d="M4315 5851 c60 -116 140 -203 285 -309 176 -129 231 -189 241 -262 3 -19 -1 -26 -18 -28 -38 -6 -64 17 -95 84 l-30 64 -85 0 c-83 0 -84 0 -77 -22 32 -105 121 -209 214 -252 66 -31 191 -36 240 -11 61 31 69 109 22 209 -39 83 -113 161 -251 263 -142 106 -221 172 -221 184 0 5 57 9 130 9 79 0 130 4 130 10 0 5 -14 41 -31 80 l-32 70 -234 0 -234 0 46 -89z"/>
 <path d="M5537 5883 c104 -235 243 -556 243 -563 0 -4 -27 -6 -60 -3 -33 3 -60 2 -60 -2 0 -4 12 -33 26 -65 24 -54 29 -58 66 -64 46 -8 91 -29 131 -62 24 -21 39 -24 104 -24 64 0 74 2 69 16 -3 8 -86 197 -183 420 l-177 404 -93 0 -92 0 26 -57z"/>
 <path d="M1939 4864 c-8 -10 -10 -21 -3 -30 8 -12 355 -14 2579 -14 l2570 0 0 27 0 28 -2566 3 c-2333 2 -2568 1 -2580 -14z"/>
 </g>
<g id="layer103" fill="#525353" stroke="none">
 <path d="M0 3880 l0 -3880 3765 0 3765 0 0 3880 0 3880 -3765 0 -3765 0 0 -3880z m3025 3170 l700 -700 907 0 c500 0 908 3 908 7 0 5 -312 320 -692 701 l-693 692 1575 -2 1575 -3 40 -23 c55 -31 122 -99 145 -147 20 -41 20 -68 20 -1611 l0 -1569 -143 143 -142 142 -915 0 -915 0 1058 -1058 1057 -1057 -2 -1176 -3 -1175 -37 -55 c-37 -53 -103 -105 -163 -128 -22 -8 -929 -11 -3550 -9 -3465 3 -3521 3 -3559 22 -50 25 -137 111 -159 158 -16 34 -17 274 -17 3682 0 2804 3 3652 12 3673 33 77 147 176 214 186 16 2 490 5 1054 6 l1025 1 700 -700z"/>
 <path d="M594 6205 c-4 -8 -4 -22 0 -30 5 -13 297 -15 2573 -13 l2568 3 0 25 0 25 -2568 3 c-2276 2 -2568 0 -2573 -13z"/>
 <path d="M1480 6049 c0 -5 9 -31 21 -57 11 -26 29 -65 38 -87 10 -22 40 -89 66 -150 26 -60 56 -128 66 -150 10 -22 43 -98 74 -170 80 -186 70 -175 165 -175 83 0 89 4 68 43 -11 21 -11 21 13 4 73 -53 164 -72 205 -43 27 20 25 96 -5 161 -26 57 -34 76 -121 273 -70 158 -84 180 -143 223 -51 37 -135 41 -167 9 -11 -11 -20 -25 -20 -31 0 -15 -30 9 -30 25 0 6 -12 34 -25 61 -14 28 -25 56 -25 63 0 9 -25 12 -90 12 -56 0 -90 -4 -90 -11z m353 -247 c9 -10 23 -35 32 -55 9 -21 29 -67 45 -103 17 -35 30 -66 30 -69 0 -2 13 -32 29 -67 16 -35 33 -75 36 -90 6 -25 5 -28 -19 -28 -18 0 -32 10 -51 37 -14 21 -25 41 -25 45 0 4 -15 40 -34 80 -64 141 -96 218 -96 236 0 36 27 43 53 14z"/>
 <path d="M3540 6054 c0 -4 12 -33 26 -65 22 -48 31 -59 51 -59 35 0 70 -40 78 -91 3 -24 26 -120 49 -214 24 -93 53 -214 65 -267 l23 -98 94 0 c54 0 94 4 94 10 0 5 -9 33 -21 62 -12 29 -27 71 -35 93 -7 22 -31 92 -53 155 -22 63 -39 115 -37 117 1 1 51 -90 110 -203 60 -113 115 -212 123 -220 10 -10 38 -14 98 -14 l84 0 -29 50 c-16 28 -38 63 -48 78 -11 15 -32 47 -47 72 -16 25 -41 64 -57 87 -15 23 -28 44 -28 48 0 4 -13 25 -28 48 -16 23 -41 62 -57 87 -16 25 -40 63 -54 85 -15 22 -33 53 -41 69 -25 49 -112 138 -155 157 -28 13 -64 19 -122 19 -46 0 -83 -3 -83 -6z"/>
 <path d="M1104 5939 c-52 -15 -78 -52 -78 -113 -1 -29 5 -66 13 -82 7 -16 20 -44 29 -61 l15 -33 94 0 93 0 -17 38 c-9 20 -17 53 -17 72 -1 32 1 35 32 38 26 3 39 -3 62 -28 54 -58 46 -101 -39 -202 -78 -92 -90 -128 -68 -204 22 -77 74 -161 122 -197 96 -71 220 -102 312 -77 110 30 124 89 59 243 l-16 37 -90 0 c-50 0 -90 -2 -90 -5 0 -2 9 -28 21 -57 19 -50 20 -53 3 -65 -27 -19 -52 -16 -79 11 -53 53 -46 81 59 235 67 97 72 145 26 238 -56 113 -125 173 -239 207 -59 17 -157 20 -207 5z"/>
 <path d="M2140 5928 c-19 -13 -37 -35 -41 -50 -9 -35 12 -119 55 -211 18 -40 51 -112 72 -161 21 -49 56 -111 76 -137 68 -84 169 -126 284 -116 79 6 115 28 128 79 9 37 -10 103 -70 236 l-28 62 -131 0 -131 0 -31 73 c-43 99 -44 111 -12 115 29 3 50 -17 69 -68 22 -58 26 -60 116 -60 107 0 108 6 26 127 -63 94 -140 132 -268 133 -68 0 -86 -4 -114 -22z m368 -475 c26 -64 19 -84 -22 -65 -20 9 -76 95 -76 117 0 3 17 5 38 5 36 0 38 -2 60 -57z"/>
 <path d="M2650 5928 c-19 -13 -37 -35 -41 -50 -9 -35 12 -119 55 -211 18 -40 51 -112 72 -161 21 -49 56 -111 76 -137 68 -84 169 -126 284 -116 77 6 114 28 128 76 9 33 7 43 -31 149 l-16 42 -88 0 c-101 0 -101 0 -68 -75 26 -58 15 -79 -29 -55 -21 12 -44 55 -109 200 -45 102 -83 194 -85 205 -2 15 3 21 23 23 30 4 50 -17 73 -78 34 -89 36 -90 131 -90 47 0 85 4 85 9 0 20 -43 109 -77 158 -65 94 -141 132 -269 133 -68 0 -86 -4 -114 -22z"/>
 <path d="M3170 5928 c-19 -13 -37 -35 -41 -50 -9 -35 12 -119 55 -211 18 -40 51 -112 72 -161 21 -49 56 -111 76 -137 68 -84 169 -126 284 -116 77 6 114 28 128 76 9 33 7 43 -31 149 l-16 42 -88 0 c-101 0 -101 0 -68 -75 26 -58 15 -79 -29 -55 -21 12 -44 55 -109 200 -45 102 -83 194 -85 205 -2 15 3 21 23 23 30 4 50 -17 73 -78 34 -89 36 -90 131 -90 47 0 85 4 85 9 0 20 -43 109 -77 158 -65 94 -141 132 -269 133 -68 0 -86 -4 -114 -22z"/>
 <path d="M4952 5939 c-48 -14 -74 -62 -67 -118 7 -46 211 -523 247 -575 68 -99 136 -137 254 -144 140 -8 191 25 182 116 -7 69 -220 552 -274 617 -58 71 -129 106 -230 111 -43 2 -94 -1 -112 -7z m191 -156 c19 -22 227 -494 227 -517 0 -28 -30 -31 -55 -5 -23 24 -235 497 -235 525 0 20 44 18 63 -3z"/>
 <path d="M6004 5940 c-50 -16 -69 -45 -68 -104 1 -41 22 -98 113 -306 62 -140 124 -272 138 -293 66 -95 150 -137 275 -137 121 0 164 33 156 119 -4 41 -153 401 -223 541 -61 119 -152 179 -282 186 -43 2 -92 -1 -109 -6z m188 -157 c20 -22 228 -496 228 -518 0 -27 -30 -29 -55 -4 -22 24 -235 498 -235 525 0 20 44 18 62 -3z"/>
 <path d="M4315 5851 c60 -116 140 -203 285 -309 176 -129 231 -189 241 -262 3 -19 -1 -26 -18 -28 -38 -6 -64 17 -95 84 l-30 64 -85 0 c-83 0 -84 0 -77 -22 32 -105 121 -209 214 -252 66 -31 191 -36 240 -11 61 31 69 109 22 209 -39 83 -113 161 -251 263 -142 106 -221 172 -221 184 0 5 57 9 130 9 79 0 130 4 130 10 0 5 -14 41 -31 80 l-32 70 -234 0 -234 0 46 -89z"/>
 <path d="M5537 5883 c104 -235 243 -556 243 -563 0 -4 -27 -6 -60 -3 -33 3 -60 2 -60 -2 0 -4 12 -33 26 -65 24 -54 29 -58 66 -64 46 -8 91 -29 131 -62 24 -21 39 -24 104 -24 64 0 74 2 69 16 -3 8 -86 197 -183 420 l-177 404 -93 0 -92 0 26 -57z"/>
 <path d="M1942 4845 l3 -25 2570 0 2570 0 3 25 3 25 -2576 0 -2576 0 3 -25z"/>
 </g>
<g id="layer104" fill="#a8262c" stroke="none">
 <path d="M0 3880 l0 -3880 3765 0 3765 0 0 3880 0 3880 -3765 0 -3765 0 0 -3880z m3025 3170 l700 -700 907 0 c500 0 908 3 908 7 0 5 -312 320 -692 700 l-693 693 1565 0 c1551 0 1565 -1 1610 -21 54 -24 134 -100 161 -151 18 -36 19 -79 19 -1610 l0 -1573 -143 143 -142 142 -915 0 -915 0 1058 -1058 1057 -1057 0 -1165 c0 -1107 -1 -1167 -19 -1205 -25 -54 -95 -123 -156 -151 l-50 -24 -3518 0 -3517 0 -47 22 c-56 26 -142 110 -169 164 -19 38 -19 95 -22 3659 -2 3366 -1 3624 15 3674 21 68 99 155 168 188 l50 23 1040 0 1040 0 700 -700z"/>
 <path d="M594 6205 c-4 -8 -4 -22 0 -30 5 -13 297 -15 2573 -13 l2568 3 0 25 0 25 -2568 3 c-2276 2 -2568 0 -2573 -13z"/>
 <path d="M1480 6051 c0 -7 13 -38 65 -156 7 -16 46 -104 85 -195 146 -336 182 -415 192 -427 10 -12 168 -20 168 -9 0 3 -4 16 -10 31 -11 28 -9 28 41 -6 39 -27 110 -42 150 -32 28 8 36 15 43 46 10 39 2 65 -60 202 -12 28 -48 109 -79 180 -64 149 -94 197 -149 237 -70 51 -166 35 -189 -32 -3 -10 -12 1 -24 30 -11 25 -30 66 -42 93 l-21 47 -85 0 c-47 0 -85 -4 -85 -9z m352 -248 c9 -10 35 -60 57 -110 23 -51 59 -134 81 -183 47 -106 49 -120 16 -120 -28 0 -55 33 -85 101 -10 24 -28 64 -39 89 -44 97 -82 193 -82 209 0 35 28 42 52 14z"/>
 <path d="M3540 6056 c0 -3 12 -32 26 -65 22 -51 31 -61 51 -61 50 0 59 -14 88 -132 14 -62 46 -192 70 -288 24 -96 46 -192 50 -212 l6 -38 94 0 c52 0 95 1 95 3 0 1 -18 54 -41 117 -76 217 -108 314 -105 317 2 2 52 -90 112 -203 60 -114 115 -213 122 -221 14 -13 152 -19 165 -7 10 10 0 27 -146 252 -37 56 -67 104 -67 107 0 3 -8 18 -19 33 -36 53 -135 207 -147 231 -26 49 -109 134 -148 152 -29 13 -65 19 -123 19 -46 0 -83 -2 -83 -4z"/>
 <path d="M1106 5940 c-41 -13 -73 -46 -80 -84 -6 -32 13 -113 41 -173 l15 -33 94 0 94 0 -17 38 c-9 20 -17 53 -17 72 -1 32 1 35 32 38 26 3 39 -3 62 -29 59 -62 54 -83 -51 -221 -68 -88 -76 -122 -50 -202 43 -132 139 -220 275 -252 62 -14 83 -15 132 -6 128 26 148 82 82 234 l-20 48 -89 0 c-49 0 -89 -1 -89 -2 0 -2 9 -27 20 -57 16 -41 18 -56 9 -67 -20 -24 -59 -16 -90 17 -48 52 -43 71 66 229 46 67 50 78 50 130 -1 98 -75 219 -168 273 -86 50 -220 71 -301 47z"/>
 <path d="M2139 5927 c-29 -19 -34 -29 -37 -66 -4 -49 13 -109 57 -203 16 -35 46 -101 66 -148 66 -153 133 -220 245 -247 112 -26 190 -10 233 49 18 24 18 31 7 80 -7 29 -31 95 -54 146 l-41 92 -131 0 -131 0 -28 68 c-16 37 -33 73 -38 79 -14 20 0 43 26 43 28 0 49 -21 67 -70 7 -19 18 -41 23 -47 12 -16 177 -18 177 -3 0 38 -69 145 -122 188 -76 63 -252 84 -319 39z m370 -474 c26 -67 17 -87 -27 -62 -23 12 -69 85 -71 112 -1 4 16 7 38 7 37 0 39 -1 60 -57z"/>
 <path d="M2649 5927 c-29 -19 -34 -29 -37 -66 -4 -49 13 -109 57 -203 16 -35 46 -101 66 -148 66 -153 133 -220 245 -247 112 -26 190 -10 233 49 18 24 19 31 8 75 -7 26 -19 67 -28 91 l-16 42 -88 0 c-51 0 -89 -4 -89 -10 0 -5 9 -32 20 -60 21 -53 19 -70 -5 -70 -31 0 -66 52 -125 190 -34 80 -71 164 -82 187 -22 47 -18 63 16 63 29 0 48 -22 70 -80 34 -89 36 -90 131 -90 47 0 85 4 85 9 0 20 -53 125 -82 164 -68 91 -145 127 -269 127 -63 0 -82 -4 -110 -23z"/>
 <path d="M3169 5927 c-29 -19 -34 -29 -37 -66 -4 -49 13 -109 57 -203 16 -35 46 -101 66 -148 66 -153 133 -220 245 -247 112 -26 190 -10 233 49 18 24 19 31 8 75 -7 26 -19 67 -28 91 l-16 42 -88 0 c-51 0 -89 -4 -89 -10 0 -5 9 -32 20 -60 21 -53 19 -70 -5 -70 -31 0 -66 52 -125 190 -34 80 -71 164 -82 187 -22 47 -18 63 16 63 29 0 48 -22 70 -80 34 -89 36 -90 131 -90 47 0 85 4 85 9 0 20 -53 125 -82 164 -68 91 -145 127 -269 127 -63 0 -82 -4 -110 -23z"/>
 <path d="M4952 5939 c-48 -14 -74 -62 -67 -118 7 -46 211 -523 247 -575 68 -99 136 -137 254 -144 140 -8 191 25 182 116 -7 69 -220 552 -274 617 -58 71 -129 106 -230 111 -43 2 -94 -1 -112 -7z m191 -156 c19 -22 227 -494 227 -517 0 -28 -30 -31 -55 -5 -23 24 -235 497 -235 525 0 20 44 18 63 -3z"/>
 <path d="M6004 5940 c-50 -16 -69 -45 -68 -104 1 -41 22 -98 113 -306 62 -140 124 -272 138 -293 66 -95 150 -137 275 -137 121 0 164 33 156 119 -4 41 -153 401 -223 541 -61 119 -152 179 -282 186 -43 2 -92 -1 -109 -6z m188 -157 c20 -22 228 -496 228 -518 0 -27 -30 -29 -55 -4 -22 24 -235 498 -235 525 0 20 44 18 62 -3z"/>
 <path d="M4315 5851 c60 -116 140 -203 285 -309 176 -129 231 -189 241 -262 3 -19 -1 -26 -18 -28 -38 -6 -64 17 -95 84 l-30 64 -85 0 c-83 0 -84 0 -77 -22 32 -105 121 -209 214 -252 66 -31 191 -36 240 -11 61 31 69 109 22 209 -39 83 -113 161 -251 263 -142 106 -221 172 -221 184 0 5 57 9 130 9 79 0 130 4 130 10 0 5 -14 41 -31 80 l-32 70 -234 0 -234 0 46 -89z"/>
 <path d="M5537 5883 c104 -235 243 -556 243 -563 0 -4 -27 -6 -60 -3 -33 3 -60 2 -60 -2 0 -4 12 -33 26 -65 24 -54 29 -58 66 -64 46 -8 91 -29 131 -62 24 -21 39 -24 104 -24 64 0 74 2 69 16 -3 8 -86 197 -183 420 l-177 404 -93 0 -92 0 26 -57z"/>
 <path d="M1940 4845 l0 -25 2573 2 2572 3 3 23 3 22 -2575 0 -2576 0 0 -25z"/>
 </g>
<g id="layer105" fill="#284b96" stroke="none">
 <path d="M0 3880 l0 -3880 3765 0 3765 0 0 3880 0 3880 -3765 0 -3765 0 0 -3880z m2565 3863 l-230 -3 690 -690 690 -690 228 0 c126 1 231 -1 235 -4 8 -9 1362 -7 1362 1 0 5 -312 320 -692 700 l-693 693 1565 0 c1551 0 1565 -1 1610 -21 54 -24 134 -100 161 -151 18 -36 19 -79 19 -1610 l0 -1573 -143 143 -142 142 -913 -2 -912 -3 1055 -1055 1056 -1055 -3 232 c-2 127 -1 229 2 226 3 -2 3 -631 2 -1396 -4 -1299 -5 -1395 -21 -1432 -24 -54 -95 -123 -156 -151 l-50 -24 -3518 0 -3517 0 -47 22 c-56 26 -142 110 -169 164 -19 38 -19 95 -22 3659 -2 3366 -1 3624 15 3674 21 68 99 155 168 188 l50 23 1275 -2 c701 -2 1172 -4 1045 -5z"/>
 <path d="M594 6205 c-4 -8 -4 -22 0 -30 5 -13 297 -15 2573 -13 l2568 3 0 25 0 25 -2568 3 c-2276 2 -2568 0 -2573 -13z"/>
 <path d="M1480 6051 c0 -7 13 -38 65 -156 7 -16 46 -104 85 -195 146 -336 182 -415 192 -427 10 -12 168 -20 168 -9 0 3 -4 16 -10 31 -11 28 -9 28 41 -6 39 -27 110 -42 150 -32 28 8 36 15 43 46 10 39 2 65 -60 202 -12 28 -48 109 -79 180 -64 149 -94 197 -149 237 -70 51 -166 35 -189 -32 -3 -10 -12 1 -24 30 -11 25 -30 66 -42 93 l-21 47 -85 0 c-47 0 -85 -4 -85 -9z m352 -248 c9 -10 35 -60 57 -110 23 -51 59 -134 81 -183 47 -106 49 -120 16 -120 -28 0 -55 33 -85 101 -10 24 -28 64 -39 89 -44 97 -82 193 -82 209 0 35 28 42 52 14z"/>
 <path d="M3540 6056 c0 -3 12 -32 26 -65 22 -51 31 -61 51 -61 50 0 59 -14 88 -132 14 -62 46 -192 70 -288 24 -96 46 -192 50 -212 l6 -38 94 0 c52 0 95 1 95 3 0 1 -18 54 -41 117 -76 217 -108 314 -105 317 2 2 52 -90 112 -203 60 -114 115 -213 122 -221 14 -13 152 -19 165 -7 10 10 0 27 -146 252 -37 56 -67 104 -67 107 0 3 -8 18 -19 33 -36 53 -135 207 -147 231 -26 49 -109 134 -148 152 -29 13 -65 19 -123 19 -46 0 -83 -2 -83 -4z"/>
 <path d="M1106 5940 c-41 -13 -73 -46 -80 -84 -6 -32 13 -113 41 -173 l15 -33 94 0 94 0 -17 38 c-9 20 -17 53 -17 72 -1 32 1 35 32 38 26 3 39 -3 62 -29 59 -62 54 -83 -51 -221 -68 -88 -76 -122 -50 -202 43 -132 139 -220 275 -252 62 -14 83 -15 132 -6 128 26 148 82 82 234 l-20 48 -89 0 c-49 0 -89 -1 -89 -2 0 -2 9 -27 20 -57 16 -41 18 -56 9 -67 -20 -24 -59 -16 -90 17 -48 52 -43 71 66 229 46 67 50 78 50 130 -1 98 -75 219 -168 273 -86 50 -220 71 -301 47z"/>
 <path d="M2139 5927 c-29 -19 -34 -29 -37 -66 -4 -49 13 -109 57 -203 16 -35 46 -101 66 -148 66 -153 133 -220 245 -247 112 -26 190 -10 233 49 18 24 18 31 7 80 -7 29 -31 95 -54 146 l-41 92 -131 0 -131 0 -28 68 c-16 37 -33 73 -38 79 -14 20 0 43 26 43 28 0 49 -21 67 -70 7 -19 18 -41 23 -47 12 -16 177 -18 177 -3 0 38 -69 145 -122 188 -76 63 -252 84 -319 39z m370 -474 c26 -67 17 -87 -27 -62 -23 12 -69 85 -71 112 -1 4 16 7 38 7 37 0 39 -1 60 -57z"/>
 <path d="M2649 5927 c-29 -19 -34 -29 -37 -66 -4 -49 13 -109 57 -203 16 -35 46 -101 66 -148 66 -153 133 -220 245 -247 112 -26 190 -10 233 49 18 24 19 31 8 75 -7 26 -19 67 -28 91 l-16 42 -88 0 c-51 0 -89 -4 -89 -10 0 -5 9 -32 20 -60 21 -53 19 -70 -5 -70 -31 0 -66 52 -125 190 -34 80 -71 164 -82 187 -22 47 -18 63 16 63 29 0 48 -22 70 -80 34 -89 36 -90 131 -90 47 0 85 4 85 9 0 20 -53 125 -82 164 -68 91 -145 127 -269 127 -63 0 -82 -4 -110 -23z"/>
 <path d="M3169 5927 c-29 -19 -34 -29 -37 -66 -4 -49 13 -109 57 -203 16 -35 46 -101 66 -148 66 -153 133 -220 245 -247 112 -26 190 -10 233 49 18 24 19 31 8 75 -7 26 -19 67 -28 91 l-16 42 -88 0 c-51 0 -89 -4 -89 -10 0 -5 9 -32 20 -60 21 -53 19 -70 -5 -70 -31 0 -66 52 -125 190 -34 80 -71 164 -82 187 -22 47 -18 63 16 63 29 0 48 -22 70 -80 34 -89 36 -90 131 -90 47 0 85 4 85 9 0 20 -53 125 -82 164 -68 91 -145 127 -269 127 -63 0 -82 -4 -110 -23z"/>
 <path d="M4952 5939 c-48 -14 -74 -62 -67 -118 7 -46 211 -523 247 -575 68 -99 136 -137 254 -144 140 -8 191 25 182 116 -7 69 -220 552 -274 617 -58 71 -129 106 -230 111 -43 2 -94 -1 -112 -7z m191 -156 c19 -22 227 -494 227 -517 0 -28 -30 -31 -55 -5 -23 24 -235 497 -235 525 0 20 44 18 63 -3z"/>
 <path d="M6004 5940 c-50 -16 -69 -45 -68 -104 1 -41 22 -98 113 -306 62 -140 124 -272 138 -293 66 -95 150 -137 275 -137 121 0 164 33 156 119 -4 41 -153 401 -223 541 -61 119 -152 179 -282 186 -43 2 -92 -1 -109 -6z m188 -157 c20 -22 228 -496 228 -518 0 -27 -30 -29 -55 -4 -22 24 -235 498 -235 525 0 20 44 18 62 -3z"/>
 <path d="M4280 5929 c0 -6 18 -45 39 -85 68 -126 142 -199 367 -363 89 -64 123 -103 149 -169 18 -44 10 -72 -21 -72 -24 0 -81 67 -96 112 l-15 43 -87 3 c-102 3 -100 7 -39 -101 75 -134 158 -187 304 -195 l87 -4 37 34 c32 29 37 40 37 74 -1 78 -52 172 -139 259 -41 41 -190 160 -257 204 -31 21 -106 94 -106 103 0 4 59 8 131 8 l130 0 -7 23 c-3 12 -18 48 -32 80 l-25 57 -229 0 c-161 0 -228 -3 -228 -11z"/>
 <path d="M5537 5883 c104 -235 243 -556 243 -563 0 -4 -27 -6 -60 -3 -33 3 -60 2 -60 -2 0 -4 12 -33 26 -65 24 -54 29 -58 66 -64 46 -8 91 -29 131 -62 24 -21 39 -24 104 -24 64 0 74 2 69 16 -3 8 -86 197 -183 420 l-177 404 -93 0 -92 0 26 -57z"/>
 <path d="M1940 4845 l0 -25 2573 2 2572 3 3 23 3 22 -2575 0 -2576 0 0 -25z"/>
 </g>
<g id="layer106" fill="#498450" stroke="none">
 <path d="M0 3880 l0 -3880 3765 0 3765 0 0 3880 0 3880 -3765 0 -3765 0 0 -3880z m2565 3863 l-230 -3 690 -690 690 -690 228 0 c126 1 231 -1 235 -4 8 -9 902 -7 902 1 0 5 -312 320 -692 700 l-693 693 1795 0 c1782 0 1795 -1 1840 -21 54 -24 134 -100 161 -151 18 -36 19 -79 19 -1610 l0 -1573 -143 143 -142 142 -225 0 -225 0 370 -372 370 -373 -375 373 -375 372 -683 -2 -682 -3 1055 -1055 1056 -1055 -3 232 c-2 127 -1 229 2 226 3 -2 3 -631 2 -1396 -4 -1299 -5 -1395 -21 -1432 -24 -54 -95 -123 -156 -151 l-50 -24 -3518 0 -3517 0 -47 22 c-56 26 -142 110 -169 164 -19 38 -19 95 -22 3659 -2 3366 -1 3624 15 3674 21 68 99 155 168 188 l50 23 1275 -2 c701 -2 1172 -4 1045 -5z"/>
 <path d="M4410 7045 l695 -695 217 0 c120 0 218 3 218 8 0 4 -309 317 -688 695 l-687 687 -225 0 -225 0 695 -695z"/>
 <path d="M594 6205 c-4 -8 -4 -22 0 -30 5 -13 297 -15 2573 -13 l2568 3 0 25 0 25 -2568 3 c-2276 2 -2568 0 -2573 -13z"/>
 <path d="M1480 6051 c0 -7 13 -38 65 -156 7 -16 46 -104 85 -195 146 -336 182 -415 192 -427 10 -12 168 -20 168 -9 0 3 -4 16 -10 31 -11 28 -9 28 41 -6 39 -27 110 -42 150 -32 28 8 36 15 43 46 10 39 2 65 -60 202 -12 28 -48 109 -79 180 -64 149 -94 197 -149 237 -70 51 -166 35 -189 -32 -3 -10 -12 1 -24 30 -11 25 -30 66 -42 93 l-21 47 -85 0 c-47 0 -85 -4 -85 -9z m352 -248 c9 -10 35 -60 57 -110 23 -51 59 -134 81 -183 47 -106 49 -120 16 -120 -28 0 -55 33 -85 101 -10 24 -28 64 -39 89 -44 97 -82 193 -82 209 0 35 28 42 52 14z"/>
 <path d="M3540 6056 c0 -3 12 -32 26 -65 22 -51 31 -61 51 -61 50 0 59 -14 88 -132 14 -62 46 -192 70 -288 24 -96 46 -192 50 -212 l6 -38 94 0 c52 0 95 1 95 3 0 1 -18 54 -41 117 -76 217 -108 314 -105 317 2 2 52 -90 112 -203 60 -114 115 -213 122 -221 14 -13 152 -19 165 -7 10 10 0 27 -146 252 -37 56 -67 104 -67 107 0 3 -8 18 -19 33 -36 53 -135 207 -147 231 -26 49 -109 134 -148 152 -29 13 -65 19 -123 19 -46 0 -83 -2 -83 -4z"/>
 <path d="M1106 5940 c-41 -13 -73 -46 -80 -84 -6 -32 13 -113 41 -173 l15 -33 94 0 94 0 -17 38 c-9 20 -17 53 -17 72 -1 32 1 35 32 38 26 3 39 -3 62 -29 59 -62 54 -83 -51 -221 -68 -88 -76 -122 -50 -202 43 -132 139 -220 275 -252 62 -14 83 -15 132 -6 128 26 148 82 82 234 l-20 48 -89 0 c-49 0 -89 -1 -89 -2 0 -2 9 -27 20 -57 16 -41 18 -56 9 -67 -20 -24 -59 -16 -90 17 -48 52 -43 71 66 229 46 67 50 78 50 130 -1 98 -75 219 -168 273 -86 50 -220 71 -301 47z"/>
 <path d="M2139 5927 c-29 -19 -34 -29 -37 -66 -4 -49 13 -109 57 -203 16 -35 46 -101 66 -148 66 -153 133 -220 245 -247 112 -26 190 -10 233 49 18 24 18 31 7 80 -7 29 -31 95 -54 146 l-41 92 -131 0 -131 0 -28 68 c-16 37 -33 73 -38 79 -14 20 0 43 26 43 28 0 49 -21 67 -70 7 -19 18 -41 23 -47 12 -16 177 -18 177 -3 0 38 -69 145 -122 188 -76 63 -252 84 -319 39z m370 -474 c26 -67 17 -87 -27 -62 -23 12 -69 85 -71 112 -1 4 16 7 38 7 37 0 39 -1 60 -57z"/>
 <path d="M2649 5927 c-29 -19 -34 -29 -37 -66 -4 -49 13 -109 57 -203 16 -35 46 -101 66 -148 66 -153 133 -220 245 -247 112 -26 190 -10 233 49 18 24 19 31 8 75 -7 26 -19 67 -28 91 l-16 42 -88 0 c-51 0 -89 -4 -89 -10 0 -5 9 -32 20 -60 21 -53 19 -70 -5 -70 -31 0 -66 52 -125 190 -34 80 -71 164 -82 187 -22 47 -18 63 16 63 29 0 48 -22 70 -80 34 -89 36 -90 131 -90 47 0 85 4 85 9 0 20 -53 125 -82 164 -68 91 -145 127 -269 127 -63 0 -82 -4 -110 -23z"/>
 <path d="M3169 5927 c-29 -19 -34 -29 -37 -66 -4 -49 13 -109 57 -203 16 -35 46 -101 66 -148 66 -153 133 -220 245 -247 112 -26 190 -10 233 49 18 24 19 31 8 75 -7 26 -19 67 -28 91 l-16 42 -88 0 c-51 0 -89 -4 -89 -10 0 -5 9 -32 20 -60 21 -53 19 -70 -5 -70 -31 0 -66 52 -125 190 -34 80 -71 164 -82 187 -22 47 -18 63 16 63 29 0 48 -22 70 -80 34 -89 36 -90 131 -90 47 0 85 4 85 9 0 20 -53 125 -82 164 -68 91 -145 127 -269 127 -63 0 -82 -4 -110 -23z"/>
 <path d="M4952 5939 c-48 -14 -74 -62 -67 -118 7 -46 211 -523 247 -575 68 -99 136 -137 254 -144 140 -8 191 25 182 116 -7 69 -220 552 -274 617 -58 71 -129 106 -230 111 -43 2 -94 -1 -112 -7z m191 -156 c19 -22 227 -494 227 -517 0 -28 -30 -31 -55 -5 -23 24 -235 497 -235 525 0 20 44 18 63 -3z"/>
 <path d="M6002 5933 c-34 -14 -72 -58 -72 -82 0 -21 34 -128 53 -166 16 -32 45 -96 72 -160 10 -22 26 -58 35 -80 19 -43 40 -91 61 -143 23 -54 109 -145 162 -171 68 -33 206 -41 256 -14 23 12 38 28 43 48 8 30 2 96 -12 125 -4 8 -14 31 -23 50 -20 48 -45 107 -68 158 -10 23 -28 61 -38 85 -10 23 -26 58 -34 77 -39 92 -59 127 -99 176 -23 29 -47 53 -52 54 -5 0 -17 6 -25 13 -41 35 -201 54 -259 30z m183 -141 c20 -16 39 -52 73 -132 20 -48 69 -161 102 -235 9 -22 25 -58 35 -80 9 -22 21 -48 27 -58 11 -22 -6 -47 -32 -47 -21 0 -56 40 -65 73 -4 12 -13 38 -22 57 -30 67 -56 125 -103 235 -10 22 -24 56 -33 75 -31 71 -39 100 -33 115 7 20 26 19 51 -3z"/>
 <path d="M4280 5929 c0 -6 18 -45 39 -85 68 -126 142 -199 367 -363 89 -64 123 -103 149 -169 18 -44 10 -72 -21 -72 -24 0 -81 67 -96 112 l-15 43 -87 3 c-102 3 -100 7 -39 -101 75 -134 158 -187 304 -195 l87 -4 37 34 c32 29 37 40 37 74 -1 78 -52 172 -139 259 -41 41 -190 160 -257 204 -31 21 -106 94 -106 103 0 4 59 8 131 8 l130 0 -7 23 c-3 12 -18 48 -32 80 l-25 57 -229 0 c-161 0 -228 -3 -228 -11z"/>
 <path d="M5537 5883 c104 -235 243 -556 243 -563 0 -4 -27 -6 -60 -3 -33 3 -60 2 -60 -2 0 -4 12 -33 26 -65 24 -54 29 -58 66 -64 46 -8 91 -29 131 -62 24 -21 39 -24 104 -24 64 0 74 2 69 16 -3 8 -86 197 -183 420 l-177 404 -93 0 -92 0 26 -57z"/>
 <path d="M1940 4845 l0 -25 2573 2 2572 3 3 23 3 22 -2575 0 -2576 0 0 -25z"/>
 </g>
<g id="layer107" fill="#2faf41" stroke="none">
 <path d="M0 3880 l0 -3880 3765 0 3765 0 0 3880 0 3880 -3765 0 -3765 0 0 -3880z m2565 3863 l-230 -3 690 -690 690 -690 228 0 c126 1 231 -1 235 -4 8 -9 902 -7 902 1 0 5 -312 320 -692 700 l-693 693 1795 0 c1782 0 1795 -1 1840 -21 54 -24 134 -100 161 -151 18 -36 19 -79 19 -1610 l0 -1573 -143 143 -142 142 -225 0 -225 0 370 -372 370 -373 -375 373 -375 372 -683 -2 -682 -3 1055 -1055 1056 -1055 -3 232 c-2 127 -1 229 2 226 3 -2 3 -631 2 -1396 -4 -1299 -5 -1395 -21 -1432 -24 -54 -95 -123 -156 -151 l-50 -24 -3518 0 -3517 0 -47 22 c-56 26 -142 110 -169 164 -19 38 -19 95 -22 3659 -2 3366 -1 3624 15 3674 21 68 99 155 168 188 l50 23 1275 -2 c701 -2 1172 -4 1045 -5z m692 0 c-4 -3 -10 -3 -14 0 -3 4 0 7 7 7 7 0 10 -3 7 -7z m4260 -4165 c-1 -68 -3 -15 -3 117 0 132 2 187 3 123 2 -64 2 -172 0 -240z"/>
 <path d="M4410 7045 l695 -695 217 0 c120 0 218 3 218 8 0 4 -309 317 -688 695 l-687 687 -225 0 -225 0 695 -695z"/>
 <path d="M594 6205 c-4 -8 -4 -22 0 -30 5 -13 297 -15 2573 -13 l2568 3 0 25 0 25 -2568 3 c-2276 2 -2568 0 -2573 -13z"/>
 <path d="M1480 6051 c0 -7 13 -38 65 -156 7 -16 46 -104 85 -195 146 -336 182 -415 192 -427 10 -12 168 -20 168 -9 0 3 -4 16 -10 31 -11 28 -9 28 41 -6 39 -27 110 -42 150 -32 28 8 36 15 43 46 10 39 2 65 -60 202 -12 28 -48 109 -79 180 -64 149 -94 197 -149 237 -70 51 -166 35 -189 -32 -3 -10 -12 1 -24 30 -11 25 -30 66 -42 93 l-21 47 -85 0 c-47 0 -85 -4 -85 -9z m352 -248 c9 -10 35 -60 57 -110 23 -51 59 -134 81 -183 47 -106 49 -120 16 -120 -28 0 -55 33 -85 101 -10 24 -28 64 -39 89 -44 97 -82 193 -82 209 0 35 28 42 52 14z"/>
 <path d="M3540 6056 c0 -3 12 -32 26 -65 22 -51 31 -61 51 -61 50 0 59 -14 88 -132 14 -62 46 -192 70 -288 24 -96 46 -192 50 -212 l6 -38 94 0 c52 0 95 1 95 3 0 1 -18 54 -41 117 -76 217 -108 314 -105 317 2 2 52 -90 112 -203 60 -114 115 -213 122 -221 14 -13 152 -19 165 -7 10 10 0 27 -146 252 -37 56 -67 104 -67 107 0 3 -8 18 -19 33 -36 53 -135 207 -147 231 -26 49 -109 134 -148 152 -29 13 -65 19 -123 19 -46 0 -83 -2 -83 -4z"/>
 <path d="M1106 5940 c-41 -13 -73 -46 -80 -84 -6 -32 13 -113 41 -173 l15 -33 94 0 94 0 -17 38 c-9 20 -17 53 -17 72 -1 32 1 35 32 38 26 3 39 -3 62 -29 59 -62 54 -83 -51 -221 -68 -88 -76 -122 -50 -202 43 -132 139 -220 275 -252 62 -14 83 -15 132 -6 128 26 148 82 82 234 l-20 48 -89 0 c-49 0 -89 -1 -89 -2 0 -2 9 -27 20 -57 16 -41 18 -56 9 -67 -20 -24 -59 -16 -90 17 -48 52 -43 71 66 229 46 67 50 78 50 130 -1 98 -75 219 -168 273 -86 50 -220 71 -301 47z"/>
 <path d="M2139 5927 c-29 -19 -34 -29 -37 -66 -4 -49 13 -109 57 -203 16 -35 46 -101 66 -148 66 -153 133 -220 245 -247 112 -26 190 -10 233 49 18 24 18 31 7 80 -7 29 -31 95 -54 146 l-41 92 -131 0 -131 0 -28 68 c-16 37 -33 73 -38 79 -14 20 0 43 26 43 28 0 49 -21 67 -70 7 -19 18 -41 23 -47 12 -16 177 -18 177 -3 0 38 -69 145 -122 188 -76 63 -252 84 -319 39z m370 -474 c26 -67 17 -87 -27 -62 -23 12 -69 85 -71 112 -1 4 16 7 38 7 37 0 39 -1 60 -57z"/>
 <path d="M2649 5927 c-29 -19 -34 -29 -37 -66 -4 -49 13 -109 57 -203 16 -35 46 -101 66 -148 66 -153 133 -220 245 -247 112 -26 190 -10 233 49 18 24 19 31 8 75 -7 26 -19 67 -28 91 l-16 42 -88 0 c-51 0 -89 -4 -89 -10 0 -5 9 -32 20 -60 21 -53 19 -70 -5 -70 -31 0 -66 52 -125 190 -34 80 -71 164 -82 187 -22 47 -18 63 16 63 29 0 48 -22 70 -80 34 -89 36 -90 131 -90 47 0 85 4 85 9 0 20 -53 125 -82 164 -68 91 -145 127 -269 127 -63 0 -82 -4 -110 -23z"/>
 <path d="M3169 5927 c-29 -19 -34 -29 -37 -66 -4 -49 13 -109 57 -203 16 -35 46 -101 66 -148 66 -153 133 -220 245 -247 112 -26 190 -10 233 49 18 24 19 31 8 75 -7 26 -19 67 -28 91 l-16 42 -88 0 c-51 0 -89 -4 -89 -10 0 -5 9 -32 20 -60 21 -53 19 -70 -5 -70 -31 0 -66 52 -125 190 -34 80 -71 164 -82 187 -22 47 -18 63 16 63 29 0 48 -22 70 -80 34 -89 36 -90 131 -90 47 0 85 4 85 9 0 20 -53 125 -82 164 -68 91 -145 127 -269 127 -63 0 -82 -4 -110 -23z"/>
 <path d="M4952 5939 c-48 -14 -74 -62 -67 -118 7 -46 211 -523 247 -575 68 -99 136 -137 254 -144 140 -8 191 25 182 116 -7 69 -220 552 -274 617 -58 71 -129 106 -230 111 -43 2 -94 -1 -112 -7z m191 -156 c19 -22 227 -494 227 -517 0 -28 -30 -31 -55 -5 -23 24 -235 497 -235 525 0 20 44 18 63 -3z"/>
 <path d="M6002 5933 c-34 -14 -72 -58 -72 -82 0 -21 34 -128 53 -166 16 -32 45 -96 72 -160 10 -22 26 -58 35 -80 19 -43 40 -91 61 -143 23 -54 109 -145 162 -171 68 -33 206 -41 256 -14 23 12 38 28 43 48 8 30 2 96 -12 125 -4 8 -14 31 -23 50 -20 48 -45 107 -68 158 -10 23 -28 61 -38 85 -10 23 -26 58 -34 77 -39 92 -59 127 -99 176 -23 29 -47 53 -52 54 -5 0 -17 6 -25 13 -41 35 -201 54 -259 30z m183 -141 c20 -16 39 -52 73 -132 20 -48 69 -161 102 -235 9 -22 25 -58 35 -80 9 -22 21 -48 27 -58 11 -22 -6 -47 -32 -47 -21 0 -56 40 -65 73 -4 12 -13 38 -22 57 -30 67 -56 125 -103 235 -10 22 -24 56 -33 75 -31 71 -39 100 -33 115 7 20 26 19 51 -3z"/>
 <path d="M4280 5929 c0 -6 18 -45 39 -85 68 -126 142 -199 367 -363 89 -64 123 -103 149 -169 18 -44 10 -72 -21 -72 -24 0 -81 67 -96 112 l-15 43 -87 3 c-102 3 -100 7 -39 -101 75 -134 158 -187 304 -195 l87 -4 37 34 c32 29 37 40 37 74 -1 78 -52 172 -139 259 -41 41 -190 160 -257 204 -31 21 -106 94 -106 103 0 4 59 8 131 8 l130 0 -7 23 c-3 12 -18 48 -32 80 l-25 57 -229 0 c-161 0 -228 -3 -228 -11z"/>
 <path d="M5537 5883 c104 -235 243 -556 243 -563 0 -4 -27 -6 -60 -3 -33 3 -60 2 -60 -2 0 -4 12 -33 26 -65 24 -54 29 -58 66 -64 46 -8 91 -29 131 -62 24 -21 39 -24 104 -24 64 0 74 2 69 16 -3 8 -86 197 -183 420 l-177 404 -93 0 -92 0 26 -57z"/>
 <path d="M1940 4845 l0 -25 2573 2 2572 3 3 23 3 22 -2575 0 -2576 0 0 -25z"/>
 </g>
<g id="layer108" fill="#5e6265" stroke="none">
 <path d="M0 3880 l0 -3880 3765 0 3765 0 0 3880 0 3880 -3765 0 -3765 0 0 -3880z m2565 3863 l-230 -3 690 -690 690 -690 228 0 c126 1 231 -1 235 -4 8 -9 442 -7 442 1 0 5 -312 320 -692 700 l-693 693 2025 0 c2013 0 2025 -1 2070 -21 54 -24 134 -100 161 -151 18 -36 19 -79 19 -1610 l0 -1573 -143 143 -142 142 -225 0 -225 0 373 -373 372 -373 0 -234 0 -235 -608 607 -607 608 -453 -2 -452 -3 1055 -1055 1056 -1055 -3 232 c-2 127 -1 229 2 226 3 -2 3 -631 2 -1396 -4 -1299 -5 -1395 -21 -1432 -24 -54 -95 -123 -156 -151 l-50 -24 -3518 0 -3517 0 -47 22 c-56 26 -142 110 -169 164 -19 38 -19 95 -22 3659 -2 3366 -1 3624 15 3674 21 68 99 155 168 188 l50 23 1275 -2 c701 -2 1172 -4 1045 -5z"/>
 <path d="M4410 7045 l695 -695 217 0 c120 0 218 3 218 8 0 4 -309 317 -688 695 l-687 687 -225 0 -225 0 695 -695z"/>
 <path d="M594 6205 c-4 -8 -4 -22 0 -30 5 -13 297 -15 2573 -13 l2568 3 0 25 0 25 -2568 3 c-2276 2 -2568 0 -2573 -13z"/>
 <path d="M1480 6051 c0 -7 13 -38 65 -156 7 -16 46 -104 85 -195 146 -336 182 -415 192 -427 10 -12 168 -20 168 -9 0 3 -4 16 -10 31 -11 28 -9 28 41 -6 39 -27 110 -42 150 -32 28 8 36 15 43 46 10 39 2 65 -60 202 -12 28 -48 109 -79 180 -64 149 -94 197 -149 237 -70 51 -166 35 -189 -32 -3 -10 -12 1 -24 30 -11 25 -30 66 -42 93 l-21 47 -85 0 c-47 0 -85 -4 -85 -9z m352 -248 c9 -10 35 -60 57 -110 23 -51 59 -134 81 -183 47 -106 49 -120 16 -120 -28 0 -55 33 -85 101 -10 24 -28 64 -39 89 -44 97 -82 193 -82 209 0 35 28 42 52 14z"/>
 <path d="M3540 6056 c0 -3 12 -32 26 -65 22 -51 31 -61 51 -61 50 0 59 -14 88 -132 14 -62 46 -192 70 -288 24 -96 46 -192 50 -212 l6 -38 94 0 c52 0 95 1 95 3 0 1 -18 54 -41 117 -76 217 -108 314 -105 317 2 2 52 -90 112 -203 60 -114 115 -213 122 -221 14 -13 152 -19 165 -7 10 10 0 27 -146 252 -37 56 -67 104 -67 107 0 3 -8 18 -19 33 -36 53 -135 207 -147 231 -26 49 -109 134 -148 152 -29 13 -65 19 -123 19 -46 0 -83 -2 -83 -4z"/>
 <path d="M1106 5940 c-41 -13 -73 -46 -80 -84 -6 -32 13 -113 41 -173 l15 -33 94 0 94 0 -17 38 c-9 20 -17 53 -17 72 -1 32 1 35 32 38 26 3 39 -3 62 -29 59 -62 54 -83 -51 -221 -68 -88 -76 -122 -50 -202 43 -132 139 -220 275 -252 62 -14 83 -15 132 -6 128 26 148 82 82 234 l-20 48 -89 0 c-49 0 -89 -1 -89 -2 0 -2 9 -27 20 -57 16 -41 18 -56 9 -67 -20 -24 -59 -16 -90 17 -48 52 -43 71 66 229 46 67 50 78 50 130 -1 98 -75 219 -168 273 -86 50 -220 71 -301 47z"/>
 <path d="M2139 5927 c-29 -19 -34 -29 -37 -66 -4 -49 13 -109 57 -203 16 -35 46 -101 66 -148 66 -153 133 -220 245 -247 112 -26 190 -10 233 49 18 24 18 31 7 80 -7 29 -31 95 -54 146 l-41 92 -131 0 -131 0 -28 68 c-16 37 -33 73 -38 79 -14 20 0 43 26 43 28 0 49 -21 67 -70 7 -19 18 -41 23 -47 12 -16 177 -18 177 -3 0 38 -69 145 -122 188 -76 63 -252 84 -319 39z m370 -474 c26 -67 17 -87 -27 -62 -23 12 -69 85 -71 112 -1 4 16 7 38 7 37 0 39 -1 60 -57z"/>
 <path d="M2649 5927 c-29 -19 -34 -29 -37 -66 -4 -49 13 -109 57 -203 16 -35 46 -101 66 -148 66 -153 133 -220 245 -247 112 -26 190 -10 233 49 18 24 19 31 8 75 -7 26 -19 67 -28 91 l-16 42 -88 0 c-51 0 -89 -4 -89 -10 0 -5 9 -32 20 -60 21 -53 19 -70 -5 -70 -31 0 -66 52 -125 190 -34 80 -71 164 -82 187 -22 47 -18 63 16 63 29 0 48 -22 70 -80 34 -89 36 -90 131 -90 47 0 85 4 85 9 0 20 -53 125 -82 164 -68 91 -145 127 -269 127 -63 0 -82 -4 -110 -23z"/>
 <path d="M3169 5927 c-29 -19 -34 -29 -37 -66 -4 -49 13 -109 57 -203 16 -35 46 -101 66 -148 66 -153 133 -220 245 -247 112 -26 190 -10 233 49 18 24 19 31 8 75 -7 26 -19 67 -28 91 l-16 42 -88 0 c-51 0 -89 -4 -89 -10 0 -5 9 -32 20 -60 21 -53 19 -70 -5 -70 -31 0 -66 52 -125 190 -34 80 -71 164 -82 187 -22 47 -18 63 16 63 29 0 48 -22 70 -80 34 -89 36 -90 131 -90 47 0 85 4 85 9 0 20 -53 125 -82 164 -68 91 -145 127 -269 127 -63 0 -82 -4 -110 -23z"/>
 <path d="M4952 5939 c-48 -14 -74 -62 -67 -118 7 -46 211 -523 247 -575 68 -99 136 -137 254 -144 140 -8 191 25 182 116 -7 69 -220 552 -274 617 -58 71 -129 106 -230 111 -43 2 -94 -1 -112 -7z m191 -156 c19 -22 227 -494 227 -517 0 -28 -30 -31 -55 -5 -23 24 -235 497 -235 525 0 20 44 18 63 -3z"/>
 <path d="M6002 5933 c-34 -14 -72 -58 -72 -82 0 -21 34 -128 53 -166 16 -32 45 -96 72 -160 10 -22 26 -58 35 -80 19 -43 40 -91 61 -143 23 -54 109 -145 162 -171 68 -33 206 -41 256 -14 23 12 38 28 43 48 8 30 2 96 -12 125 -4 8 -14 31 -23 50 -20 48 -45 107 -68 158 -10 23 -28 61 -38 85 -10 23 -26 58 -34 77 -39 92 -59 127 -99 176 -23 29 -47 53 -52 54 -5 0 -17 6 -25 13 -41 35 -201 54 -259 30z m183 -141 c20 -16 39 -52 73 -132 20 -48 69 -161 102 -235 9 -22 25 -58 35 -80 9 -22 21 -48 27 -58 11 -22 -6 -47 -32 -47 -21 0 -56 40 -65 73 -4 12 -13 38 -22 57 -30 67 -56 125 -103 235 -10 22 -24 56 -33 75 -31 71 -39 100 -33 115 7 20 26 19 51 -3z"/>
 <path d="M4280 5929 c0 -6 18 -45 39 -85 68 -126 142 -199 367 -363 89 -64 123 -103 149 -169 18 -44 10 -72 -21 -72 -24 0 -81 67 -96 112 l-15 43 -87 3 c-102 3 -100 7 -39 -101 75 -134 158 -187 304 -195 l87 -4 37 34 c32 29 37 40 37 74 -1 78 -52 172 -139 259 -41 41 -190 160 -257 204 -31 21 -106 94 -106 103 0 4 59 8 131 8 l130 0 -7 23 c-3 12 -18 48 -32 80 l-25 57 -229 0 c-161 0 -228 -3 -228 -11z"/>
 <path d="M1940 4845 l0 -25 2573 2 2572 3 3 23 3 22 -2575 0 -2576 0 0 -25z"/>
 </g>
<g id="layer109" fill="#2b54ad" stroke="none">
 <path d="M0 3880 l0 -3880 3765 0 3765 0 0 3880 0 3880 -3765 0 -3765 0 0 -3880z m2565 3863 l-230 -3 690 -690 690 -690 228 0 c126 1 231 -1 235 -4 8 -9 442 -7 442 1 0 5 -312 320 -692 700 l-693 693 2025 0 c2013 0 2025 -1 2070 -21 54 -24 134 -99 163 -154 l22 -40 3 -1575 2 -1575 -147 148 -148 147 -225 0 -225 0 373 -373 372 -373 0 -234 0 -235 -608 607 -607 608 -453 -2 -452 -3 1055 -1055 1056 -1055 -3 232 c-2 127 0 229 5 226 4 -2 7 -622 7 -1378 0 -1354 0 -1375 -20 -1428 -25 -67 -96 -141 -165 -173 l-50 -24 -3519 0 -3518 0 -52 26 c-64 32 -126 92 -157 152 l-24 47 -3 3625 c-2 3289 -1 3629 14 3672 21 64 104 154 169 185 l50 23 1275 -2 c701 -2 1172 -4 1045 -5z"/>
 <path d="M4410 7045 l695 -695 217 0 c120 0 218 3 218 8 0 4 -309 317 -688 695 l-687 687 -225 0 -225 0 695 -695z"/>
 <path d="M594 6205 c-4 -8 -4 -22 0 -30 5 -13 297 -15 2573 -13 l2568 3 0 25 0 25 -2568 3 c-2276 2 -2568 0 -2573 -13z"/>
 <path d="M1480 6051 c0 -8 24 -66 65 -156 8 -16 71 -160 140 -320 70 -159 132 -296 137 -302 7 -9 39 -13 90 -13 72 0 79 2 73 18 -22 53 -19 56 21 25 72 -58 168 -66 200 -18 23 36 13 76 -61 240 -8 17 -41 92 -74 169 -87 199 -141 256 -243 256 -45 0 -78 -22 -91 -60 -3 -10 -12 1 -24 30 -11 25 -30 66 -42 93 l-21 47 -85 0 c-47 0 -85 -4 -85 -9z m353 -249 c19 -21 177 -376 177 -397 0 -21 -43 -19 -63 3 -15 16 -30 47 -97 197 -45 100 -70 166 -70 183 0 36 27 43 53 14z"/>
 <path d="M3540 6057 c0 -3 12 -33 26 -66 22 -51 31 -61 51 -61 56 0 57 -3 138 -337 43 -175 83 -321 89 -325 6 -4 49 -8 95 -8 75 0 82 2 76 18 -4 9 -13 35 -20 57 -7 22 -41 117 -75 210 -74 205 -80 228 -39 150 155 -297 223 -421 233 -427 16 -11 154 -10 160 1 3 4 -51 98 -120 207 -70 110 -163 257 -208 328 -91 145 -144 209 -190 233 -30 15 -216 33 -216 20z"/>
 <path d="M1106 5940 c-41 -13 -73 -46 -80 -84 -6 -32 13 -113 41 -173 l15 -33 94 0 93 0 -20 47 c-28 67 -23 97 19 101 38 4 86 -37 98 -84 8 -33 -5 -58 -87 -166 -64 -83 -72 -109 -54 -183 23 -101 108 -205 198 -245 100 -44 231 -46 294 -5 45 30 46 104 1 207 l-20 48 -89 0 c-49 0 -89 -1 -89 -2 0 -2 9 -27 20 -57 16 -41 18 -56 9 -67 -19 -23 -58 -16 -90 15 -48 49 -36 96 55 216 61 80 73 119 57 190 -26 117 -132 229 -252 266 -63 20 -163 24 -213 9z"/>
 <path d="M2163 5939 c-71 -21 -81 -104 -28 -224 15 -33 35 -78 45 -100 10 -22 32 -73 49 -113 59 -141 130 -210 245 -239 119 -29 225 4 239 73 6 36 -6 81 -56 197 l-41 97 -131 0 -131 0 -38 84 c-21 47 -35 90 -31 95 9 16 51 13 65 -4 7 -9 23 -38 36 -65 l23 -50 86 0 c50 0 85 4 85 10 0 6 -10 32 -22 58 -30 64 -124 157 -174 172 -53 16 -182 22 -221 9z m347 -483 c12 -30 19 -60 15 -65 -11 -18 -40 -12 -62 12 -17 18 -53 88 -53 103 0 2 17 4 39 4 37 0 39 -2 61 -54z"/>
 <path d="M2673 5939 c-71 -21 -81 -104 -28 -224 15 -33 35 -78 45 -100 10 -22 32 -73 49 -113 59 -141 130 -210 245 -239 118 -29 225 4 239 73 5 26 -10 90 -34 152 l-13 32 -88 0 c-48 0 -88 -4 -88 -9 0 -5 9 -31 20 -57 12 -26 19 -53 16 -61 -8 -20 -40 -15 -63 10 -23 25 -174 361 -177 392 -1 14 6 21 25 23 31 4 49 -16 78 -88 13 -30 28 -61 33 -67 12 -15 178 -18 178 -3 0 5 -14 40 -32 77 -40 84 -127 176 -184 193 -53 16 -182 22 -221 9z"/>
 <path d="M3193 5939 c-71 -21 -81 -104 -28 -224 15 -33 35 -78 45 -100 10 -22 32 -73 49 -113 59 -141 130 -210 245 -239 118 -29 225 4 239 73 5 26 -10 90 -34 152 l-13 32 -88 0 c-48 0 -88 -4 -88 -9 0 -5 9 -31 20 -57 12 -26 19 -53 16 -61 -8 -20 -40 -15 -63 10 -23 25 -174 361 -177 392 -1 14 6 21 25 23 31 4 49 -16 78 -88 13 -30 28 -61 33 -67 12 -15 178 -18 178 -3 0 5 -14 40 -32 77 -40 84 -127 176 -184 193 -53 16 -182 22 -221 9z"/>
 <path d="M4952 5939 c-48 -14 -74 -62 -67 -118 7 -46 211 -523 247 -575 68 -99 136 -137 254 -144 140 -8 191 25 182 116 -7 69 -220 552 -274 617 -58 71 -129 106 -230 111 -43 2 -94 -1 -112 -7z m191 -156 c19 -22 227 -494 227 -517 0 -28 -30 -31 -55 -5 -23 24 -235 497 -235 525 0 20 44 18 63 -3z"/>
 <path d="M6002 5933 c-34 -14 -72 -58 -72 -82 0 -21 34 -128 53 -166 16 -32 45 -96 72 -160 10 -22 26 -58 35 -80 19 -43 40 -91 61 -143 23 -54 109 -145 162 -171 68 -33 206 -41 256 -14 23 12 38 28 43 48 8 30 2 96 -12 125 -4 8 -14 31 -23 50 -20 48 -45 107 -68 158 -10 23 -28 61 -38 85 -10 23 -26 58 -34 77 -39 92 -59 127 -99 176 -23 29 -47 53 -52 54 -5 0 -17 6 -25 13 -41 35 -201 54 -259 30z m183 -141 c20 -16 39 -52 73 -132 20 -48 69 -161 102 -235 9 -22 25 -58 35 -80 9 -22 21 -48 27 -58 11 -22 -6 -47 -32 -47 -21 0 -56 40 -65 73 -4 12 -13 38 -22 57 -30 67 -56 125 -103 235 -10 22 -24 56 -33 75 -31 71 -39 100 -33 115 7 20 26 19 51 -3z"/>
 <path d="M4280 5929 c0 -6 18 -45 39 -85 68 -126 142 -199 367 -363 89 -64 123 -103 149 -169 18 -44 10 -72 -21 -72 -24 0 -81 67 -96 112 l-15 43 -87 3 c-102 3 -100 7 -39 -101 75 -134 158 -187 304 -195 l87 -4 37 34 c32 29 37 40 37 74 -1 78 -52 172 -139 259 -41 41 -190 160 -257 204 -31 21 -106 94 -106 103 0 4 59 8 131 8 l130 0 -7 23 c-3 12 -18 48 -32 80 l-25 57 -229 0 c-161 0 -228 -3 -228 -11z"/>
 <path d="M1940 4845 l0 -25 2573 2 2572 3 3 23 3 22 -2575 0 -2576 0 0 -25z"/>
 </g>
<g id="layer110" fill="#526283" stroke="none">
 <path d="M0 3880 l0 -3880 3765 0 3765 0 0 3880 0 3880 -3765 0 -3765 0 0 -3880z m2565 3863 l-230 -3 690 -690 690 -690 228 0 c126 1 231 -1 235 -4 8 -9 442 -7 442 1 0 5 -312 320 -692 700 l-693 693 2025 0 c2013 0 2025 -1 2070 -21 54 -24 134 -99 163 -154 l22 -40 1 -2035 2 -2035 -607 608 -606 607 -453 -2 -452 -3 1055 -1055 1056 -1055 -3 232 c-2 127 0 229 5 226 4 -2 7 -622 7 -1378 0 -1354 0 -1375 -20 -1428 -25 -67 -96 -141 -165 -173 l-50 -24 -3519 0 -3518 0 -52 26 c-64 32 -126 92 -157 152 l-24 47 -3 3625 c-2 3289 -1 3629 14 3672 21 64 104 154 169 185 l50 23 1275 -2 c701 -2 1172 -4 1045 -5z"/>
 <path d="M594 6205 c-4 -8 -4 -22 0 -30 5 -13 297 -15 2573 -13 l2568 3 0 25 0 25 -2568 3 c-2276 2 -2568 0 -2573 -13z"/>
 <path d="M1480 6051 c0 -8 24 -66 65 -156 8 -16 71 -160 140 -320 70 -159 132 -296 137 -302 7 -9 39 -13 90 -13 72 0 79 2 73 18 -22 53 -19 56 21 25 72 -58 168 -66 200 -18 23 36 13 76 -61 240 -8 17 -41 92 -74 169 -87 199 -141 256 -243 256 -45 0 -78 -22 -91 -60 -3 -10 -12 1 -24 30 -11 25 -30 66 -42 93 l-21 47 -85 0 c-47 0 -85 -4 -85 -9z m353 -249 c19 -21 177 -376 177 -397 0 -21 -43 -19 -63 3 -15 16 -30 47 -97 197 -45 100 -70 166 -70 183 0 36 27 43 53 14z"/>
 <path d="M3540 6057 c0 -3 12 -33 26 -66 22 -51 31 -61 51 -61 56 0 57 -3 138 -337 43 -175 83 -321 89 -325 6 -4 49 -8 95 -8 75 0 82 2 76 18 -4 9 -13 35 -20 57 -7 22 -41 117 -75 210 -74 205 -80 228 -39 150 155 -297 223 -421 233 -427 16 -11 154 -10 160 1 3 4 -51 98 -120 207 -70 110 -163 257 -208 328 -91 145 -144 209 -190 233 -30 15 -216 33 -216 20z"/>
 <path d="M1106 5940 c-41 -13 -73 -46 -80 -84 -6 -32 13 -113 41 -173 l15 -33 94 0 93 0 -20 47 c-28 67 -23 97 19 101 38 4 86 -37 98 -84 8 -33 -5 -58 -87 -166 -64 -83 -72 -109 -54 -183 23 -101 108 -205 198 -245 100 -44 231 -46 294 -5 45 30 46 104 1 207 l-20 48 -89 0 c-49 0 -89 -1 -89 -2 0 -2 9 -27 20 -57 16 -41 18 -56 9 -67 -19 -23 -58 -16 -90 15 -48 49 -36 96 55 216 61 80 73 119 57 190 -26 117 -132 229 -252 266 -63 20 -163 24 -213 9z"/>
 <path d="M2163 5939 c-71 -21 -81 -104 -28 -224 15 -33 35 -78 45 -100 10 -22 32 -73 49 -113 59 -141 130 -210 245 -239 119 -29 225 4 239 73 6 36 -6 81 -56 197 l-41 97 -131 0 -131 0 -38 84 c-21 47 -35 90 -31 95 9 16 51 13 65 -4 7 -9 23 -38 36 -65 l23 -50 86 0 c50 0 85 4 85 10 0 6 -10 32 -22 58 -30 64 -124 157 -174 172 -53 16 -182 22 -221 9z m347 -483 c12 -30 19 -60 15 -65 -11 -18 -40 -12 -62 12 -17 18 -53 88 -53 103 0 2 17 4 39 4 37 0 39 -2 61 -54z"/>
 <path d="M2673 5939 c-71 -21 -81 -104 -28 -224 15 -33 35 -78 45 -100 10 -22 32 -73 49 -113 59 -141 130 -210 245 -239 118 -29 225 4 239 73 5 26 -10 90 -34 152 l-13 32 -88 0 c-48 0 -88 -4 -88 -9 0 -5 9 -31 20 -57 12 -26 19 -53 16 -61 -8 -20 -40 -15 -63 10 -23 25 -174 361 -177 392 -1 14 6 21 25 23 31 4 49 -16 78 -88 13 -30 28 -61 33 -67 12 -15 178 -18 178 -3 0 5 -14 40 -32 77 -40 84 -127 176 -184 193 -53 16 -182 22 -221 9z"/>
 <path d="M3193 5939 c-71 -21 -81 -104 -28 -224 15 -33 35 -78 45 -100 10 -22 32 -73 49 -113 59 -141 130 -210 245 -239 118 -29 225 4 239 73 5 26 -10 90 -34 152 l-13 32 -88 0 c-48 0 -88 -4 -88 -9 0 -5 9 -31 20 -57 12 -26 19 -53 16 -61 -8 -20 -40 -15 -63 10 -23 25 -174 361 -177 392 -1 14 6 21 25 23 31 4 49 -16 78 -88 13 -30 28 -61 33 -67 12 -15 178 -18 178 -3 0 5 -14 40 -32 77 -40 84 -127 176 -184 193 -53 16 -182 22 -221 9z"/>
 <path d="M4952 5939 c-48 -14 -74 -62 -67 -118 7 -46 211 -523 247 -575 68 -99 136 -137 254 -144 140 -8 191 25 182 116 -7 69 -220 552 -274 617 -58 71 -129 106 -230 111 -43 2 -94 -1 -112 -7z m191 -156 c19 -22 227 -494 227 -517 0 -28 -30 -31 -55 -5 -23 24 -235 497 -235 525 0 20 44 18 63 -3z"/>
 <path d="M4280 5929 c0 -6 18 -45 39 -85 68 -126 142 -199 367 -363 89 -64 123 -103 149 -169 18 -44 10 -72 -21 -72 -24 0 -81 67 -96 112 l-15 43 -87 3 c-102 3 -100 7 -39 -101 75 -134 158 -187 304 -195 l87 -4 37 34 c32 29 37 40 37 74 -1 78 -52 172 -139 259 -41 41 -190 160 -257 204 -31 21 -106 94 -106 103 0 4 59 8 131 8 l130 0 -7 23 c-3 12 -18 48 -32 80 l-25 57 -229 0 c-161 0 -228 -3 -228 -11z"/>
 <path d="M1940 4845 l0 -25 2573 2 2572 3 3 23 3 22 -2575 0 -2576 0 0 -25z"/>
 </g>
<g id="layer111" fill="#ec222c" stroke="none">
 <path d="M0 3880 l0 -3880 3765 0 3765 0 0 3880 0 3880 -3765 0 -3765 0 0 -3880z m2565 3863 l-230 -3 690 -690 690 -690 228 0 c126 1 231 -1 235 -4 8 -9 442 -7 442 1 0 5 -312 320 -692 700 l-693 693 2025 0 c2013 0 2025 -1 2070 -21 54 -24 134 -99 163 -154 l22 -40 3 -2035 2 -2036 -607 608 -608 608 -453 -2 -452 -3 1055 -1055 1056 -1055 -3 232 c-2 127 0 229 5 226 4 -2 7 -622 7 -1378 0 -1354 0 -1375 -20 -1428 -25 -67 -96 -141 -165 -173 l-50 -24 -3519 0 -3518 0 -52 26 c-64 32 -126 92 -157 152 l-24 47 -3 3625 c-2 3289 -1 3629 14 3672 21 64 104 154 169 185 l50 23 1275 -2 c701 -2 1172 -4 1045 -5z"/>
 <path d="M594 6205 c-4 -8 -4 -22 0 -30 5 -13 297 -15 2573 -13 l2568 3 0 25 0 25 -2568 3 c-2276 2 -2568 0 -2573 -13z"/>
 <path d="M1480 6051 c0 -8 24 -66 65 -156 8 -16 71 -160 140 -320 70 -159 132 -296 137 -302 7 -9 39 -13 90 -13 72 0 79 2 73 18 -22 53 -19 56 21 25 72 -58 168 -66 200 -18 23 36 13 76 -61 240 -8 17 -41 92 -74 169 -87 199 -141 256 -243 256 -45 0 -78 -22 -91 -60 -3 -10 -12 1 -24 30 -11 25 -30 66 -42 93 l-21 47 -85 0 c-47 0 -85 -4 -85 -9z m353 -249 c19 -21 177 -376 177 -397 0 -21 -43 -19 -63 3 -15 16 -30 47 -97 197 -45 100 -70 166 -70 183 0 36 27 43 53 14z"/>
 <path d="M3540 6057 c0 -3 12 -33 26 -66 22 -51 31 -61 51 -61 56 0 57 -3 138 -337 43 -175 83 -321 89 -325 6 -4 49 -8 95 -8 75 0 82 2 76 18 -4 9 -13 35 -20 57 -7 22 -41 117 -75 210 -74 205 -80 228 -39 150 155 -297 223 -421 233 -427 16 -11 154 -10 160 1 3 4 -51 98 -120 207 -70 110 -163 257 -208 328 -91 145 -144 209 -190 233 -30 15 -216 33 -216 20z"/>
 <path d="M1106 5940 c-41 -13 -73 -46 -80 -84 -6 -32 13 -113 41 -173 l15 -33 94 0 93 0 -20 47 c-28 67 -23 97 19 101 38 4 86 -37 98 -84 8 -33 -5 -58 -87 -166 -64 -83 -72 -109 -54 -183 23 -101 108 -205 198 -245 100 -44 231 -46 294 -5 45 30 46 104 1 207 l-20 48 -89 0 c-49 0 -89 -1 -89 -2 0 -2 9 -27 20 -57 16 -41 18 -56 9 -67 -19 -23 -58 -16 -90 15 -48 49 -36 96 55 216 61 80 73 119 57 190 -26 117 -132 229 -252 266 -63 20 -163 24 -213 9z"/>
 <path d="M2163 5939 c-71 -21 -81 -104 -28 -224 15 -33 35 -78 45 -100 10 -22 32 -73 49 -113 59 -141 130 -210 245 -239 119 -29 225 4 239 73 6 36 -6 81 -56 197 l-41 97 -131 0 -131 0 -38 84 c-21 47 -35 90 -31 95 9 16 51 13 65 -4 7 -9 23 -38 36 -65 l23 -50 86 0 c50 0 85 4 85 10 0 6 -10 32 -22 58 -30 64 -124 157 -174 172 -53 16 -182 22 -221 9z m347 -483 c12 -30 19 -60 15 -65 -11 -18 -40 -12 -62 12 -17 18 -53 88 -53 103 0 2 17 4 39 4 37 0 39 -2 61 -54z"/>
 <path d="M2673 5939 c-71 -21 -81 -104 -28 -224 15 -33 35 -78 45 -100 10 -22 32 -73 49 -113 59 -141 130 -210 245 -239 118 -29 225 4 239 73 5 26 -10 90 -34 152 l-13 32 -88 0 c-48 0 -88 -4 -88 -9 0 -5 9 -31 20 -57 12 -26 19 -53 16 -61 -8 -20 -40 -15 -63 10 -23 25 -174 361 -177 392 -1 14 6 21 25 23 31 4 49 -16 78 -88 13 -30 28 -61 33 -67 12 -15 178 -18 178 -3 0 5 -14 40 -32 77 -40 84 -127 176 -184 193 -53 16 -182 22 -221 9z"/>
 <path d="M3193 5939 c-71 -21 -81 -104 -28 -224 15 -33 35 -78 45 -100 10 -22 32 -73 49 -113 59 -141 130 -210 245 -239 118 -29 225 4 239 73 5 26 -10 90 -34 152 l-13 32 -88 0 c-48 0 -88 -4 -88 -9 0 -5 9 -31 20 -57 12 -26 19 -53 16 -61 -8 -20 -40 -15 -63 10 -23 25 -174 361 -177 392 -1 14 6 21 25 23 31 4 49 -16 78 -88 13 -30 28 -61 33 -67 12 -15 178 -18 178 -3 0 5 -14 40 -32 77 -40 84 -127 176 -184 193 -53 16 -182 22 -221 9z"/>
 <path d="M4952 5939 c-48 -14 -74 -62 -67 -118 7 -46 211 -523 247 -575 68 -99 136 -137 254 -144 140 -8 191 25 182 116 -7 69 -220 552 -274 617 -58 71 -129 106 -230 111 -43 2 -94 -1 -112 -7z m191 -156 c19 -22 227 -494 227 -517 0 -28 -30 -31 -55 -5 -23 24 -235 497 -235 525 0 20 44 18 63 -3z"/>
 <path d="M4280 5929 c0 -6 18 -45 39 -85 68 -126 142 -199 367 -363 89 -64 123 -103 149 -169 18 -44 10 -72 -21 -72 -24 0 -81 67 -96 112 l-15 43 -87 3 c-102 3 -100 7 -39 -101 75 -134 158 -187 304 -195 l87 -4 37 34 c32 29 37 40 37 74 -1 78 -52 172 -139 259 -41 41 -190 160 -257 204 -31 21 -106 94 -106 103 0 4 59 8 131 8 l130 0 -7 23 c-3 12 -18 48 -32 80 l-25 57 -229 0 c-161 0 -228 -3 -228 -11z"/>
 <path d="M1940 4845 l0 -25 2573 2 2572 3 3 23 3 22 -2575 0 -2576 0 0 -25z"/>
 </g>
<g id="layer112" fill="#f9c715" stroke="none">
 <path d="M0 3880 l0 -3880 3765 0 3765 0 0 3880 0 3880 -3765 0 -3765 0 0 -3880z m3485 3170 l700 -700 217 0 c120 0 218 3 218 7 0 5 -312 320 -692 700 l-693 693 2025 0 c2013 0 2025 -1 2070 -21 54 -24 134 -99 163 -154 l22 -40 3 -2035 2 -2036 -607 608 -608 608 -225 0 -225 0 833 -833 832 -832 0 -1372 c0 -1351 0 -1373 -20 -1426 -25 -67 -96 -141 -165 -173 l-50 -24 -3519 0 -3518 0 -52 26 c-64 32 -126 92 -157 152 l-24 47 -3 3625 c-2 3289 -1 3629 14 3672 21 64 104 154 169 185 l50 23 1270 0 1270 0 700 -700z"/>
 <path d="M594 6205 c-4 -8 -4 -22 0 -30 5 -13 297 -15 2573 -13 l2568 3 0 25 0 25 -2568 3 c-2276 2 -2568 0 -2573 -13z"/>
 <path d="M1480 6051 c0 -8 24 -66 65 -156 8 -16 71 -160 140 -320 70 -159 132 -296 137 -302 7 -9 39 -13 90 -13 72 0 79 2 73 18 -22 53 -19 56 21 25 72 -58 168 -66 200 -18 23 36 13 76 -61 240 -8 17 -41 92 -74 169 -87 199 -141 256 -243 256 -45 0 -78 -22 -91 -60 -3 -10 -12 1 -24 30 -11 25 -30 66 -42 93 l-21 47 -85 0 c-47 0 -85 -4 -85 -9z m353 -249 c19 -21 177 -376 177 -397 0 -21 -43 -19 -63 3 -15 16 -30 47 -97 197 -45 100 -70 166 -70 183 0 36 27 43 53 14z"/>
 <path d="M3540 6057 c0 -3 12 -33 26 -66 22 -51 31 -61 51 -61 56 0 57 -3 138 -337 43 -175 83 -321 89 -325 6 -4 49 -8 95 -8 75 0 82 2 76 18 -4 9 -13 35 -20 57 -7 22 -41 117 -75 210 -74 205 -80 228 -39 150 155 -297 223 -421 233 -427 16 -11 154 -10 160 1 3 4 -51 98 -120 207 -70 110 -163 257 -208 328 -91 145 -144 209 -190 233 -30 15 -216 33 -216 20z"/>
 <path d="M1106 5940 c-41 -13 -73 -46 -80 -84 -6 -32 13 -113 41 -173 l15 -33 94 0 93 0 -20 47 c-28 67 -23 97 19 101 38 4 86 -37 98 -84 8 -33 -5 -58 -87 -166 -64 -83 -72 -109 -54 -183 23 -101 108 -205 198 -245 100 -44 231 -46 294 -5 45 30 46 104 1 207 l-20 48 -89 0 c-49 0 -89 -1 -89 -2 0 -2 9 -27 20 -57 16 -41 18 -56 9 -67 -19 -23 -58 -16 -90 15 -48 49 -36 96 55 216 61 80 73 119 57 190 -26 117 -132 229 -252 266 -63 20 -163 24 -213 9z"/>
 <path d="M2163 5939 c-71 -21 -81 -104 -28 -224 15 -33 35 -78 45 -100 10 -22 32 -73 49 -113 59 -141 130 -210 245 -239 119 -29 225 4 239 73 6 36 -6 81 -56 197 l-41 97 -131 0 -131 0 -38 84 c-21 47 -35 90 -31 95 9 16 51 13 65 -4 7 -9 23 -38 36 -65 l23 -50 86 0 c50 0 85 4 85 10 0 6 -10 32 -22 58 -30 64 -124 157 -174 172 -53 16 -182 22 -221 9z m347 -483 c12 -30 19 -60 15 -65 -11 -18 -40 -12 -62 12 -17 18 -53 88 -53 103 0 2 17 4 39 4 37 0 39 -2 61 -54z"/>
 <path d="M2673 5939 c-71 -21 -81 -104 -28 -224 15 -33 35 -78 45 -100 10 -22 32 -73 49 -113 59 -141 130 -210 245 -239 118 -29 225 4 239 73 5 26 -10 90 -34 152 l-13 32 -88 0 c-48 0 -88 -4 -88 -9 0 -5 9 -31 20 -57 12 -26 19 -53 16 -61 -8 -20 -40 -15 -63 10 -23 25 -174 361 -177 392 -1 14 6 21 25 23 31 4 49 -16 78 -88 13 -30 28 -61 33 -67 12 -15 178 -18 178 -3 0 5 -14 40 -32 77 -40 84 -127 176 -184 193 -53 16 -182 22 -221 9z"/>
 <path d="M3193 5939 c-71 -21 -81 -104 -28 -224 15 -33 35 -78 45 -100 10 -22 32 -73 49 -113 59 -141 130 -210 245 -239 118 -29 225 4 239 73 5 26 -10 90 -34 152 l-13 32 -88 0 c-48 0 -88 -4 -88 -9 0 -5 9 -31 20 -57 12 -26 19 -53 16 -61 -8 -20 -40 -15 -63 10 -23 25 -174 361 -177 392 -1 14 6 21 25 23 31 4 49 -16 78 -88 13 -30 28 -61 33 -67 12 -15 178 -18 178 -3 0 5 -14 40 -32 77 -40 84 -127 176 -184 193 -53 16 -182 22 -221 9z"/>
 <path d="M4952 5939 c-48 -14 -74 -62 -67 -118 7 -46 211 -523 247 -575 68 -99 136 -137 254 -144 140 -8 191 25 182 116 -7 69 -220 552 -274 617 -58 71 -129 106 -230 111 -43 2 -94 -1 -112 -7z m191 -156 c19 -22 227 -494 227 -517 0 -28 -30 -31 -55 -5 -23 24 -235 497 -235 525 0 20 44 18 63 -3z"/>
 <path d="M1940 4845 l0 -25 2573 2 2572 3 3 23 3 22 -2575 0 -2576 0 0 -25z"/>
 </g>
<g id="layer113" fill="#d2dbe1" stroke="none">
 <path d="M0 3880 l0 -3880 3765 0 3765 0 0 3880 0 3880 -3765 0 -3765 0 0 -3880z m7330 3849 c54 -24 134 -99 163 -154 l22 -40 3 -3632 c2 -3624 2 -3632 -18 -3686 -25 -67 -96 -141 -165 -173 l-50 -24 -3519 0 -3518 0 -52 26 c-64 32 -126 92 -157 152 l-24 47 -3 3625 c-2 3289 -1 3629 14 3672 21 64 104 154 169 185 l50 23 3520 0 c3516 0 3520 0 3565 -21z"/>
 <path d="M594 6205 c-4 -8 -4 -22 0 -30 5 -13 297 -15 2573 -13 l2568 3 0 25 0 25 -2568 3 c-2276 2 -2568 0 -2573 -13z"/>
 <path d="M1480 6051 c0 -8 24 -66 65 -156 8 -16 71 -160 140 -320 70 -159 132 -296 137 -302 7 -9 39 -13 90 -13 72 0 79 2 73 18 -22 53 -19 56 21 25 72 -58 168 -66 200 -18 23 36 13 76 -61 240 -8 17 -41 92 -74 169 -87 199 -141 256 -243 256 -45 0 -78 -22 -91 -60 -3 -10 -12 1 -24 30 -11 25 -30 66 -42 93 l-21 47 -85 0 c-47 0 -85 -4 -85 -9z m353 -249 c19 -21 177 -376 177 -397 0 -21 -43 -19 -63 3 -15 16 -30 47 -97 197 -45 100 -70 166 -70 183 0 36 27 43 53 14z"/>
 <path d="M3540 6057 c0 -3 12 -33 26 -66 22 -51 31 -61 51 -61 56 0 57 -3 138 -337 43 -175 83 -321 89 -325 6 -4 49 -8 95 -8 75 0 82 2 76 18 -4 9 -13 35 -20 57 -7 22 -41 117 -75 210 -74 205 -80 228 -39 150 155 -297 223 -421 233 -427 16 -11 154 -10 160 1 3 4 -51 98 -120 207 -70 110 -163 257 -208 328 -91 145 -144 209 -190 233 -30 15 -216 33 -216 20z"/>
 <path d="M1106 5940 c-41 -13 -73 -46 -80 -84 -6 -32 13 -113 41 -173 l15 -33 94 0 93 0 -20 47 c-28 67 -23 97 19 101 38 4 86 -37 98 -84 8 -33 -5 -58 -87 -166 -64 -83 -72 -109 -54 -183 23 -101 108 -205 198 -245 100 -44 231 -46 294 -5 45 30 46 104 1 207 l-20 48 -89 0 c-49 0 -89 -1 -89 -2 0 -2 9 -27 20 -57 16 -41 18 -56 9 -67 -19 -23 -58 -16 -90 15 -48 49 -36 96 55 216 61 80 73 119 57 190 -26 117 -132 229 -252 266 -63 20 -163 24 -213 9z"/>
 <path d="M2163 5939 c-71 -21 -81 -104 -28 -224 15 -33 35 -78 45 -100 10 -22 32 -73 49 -113 59 -141 130 -210 245 -239 119 -29 225 4 239 73 6 36 -6 81 -56 197 l-41 97 -131 0 -131 0 -38 84 c-21 47 -35 90 -31 95 9 16 51 13 65 -4 7 -9 23 -38 36 -65 l23 -50 86 0 c50 0 85 4 85 10 0 6 -10 32 -22 58 -30 64 -124 157 -174 172 -53 16 -182 22 -221 9z m347 -483 c12 -30 19 -60 15 -65 -11 -18 -40 -12 -62 12 -17 18 -53 88 -53 103 0 2 17 4 39 4 37 0 39 -2 61 -54z"/>
 <path d="M2673 5939 c-71 -21 -81 -104 -28 -224 15 -33 35 -78 45 -100 10 -22 32 -73 49 -113 59 -141 130 -210 245 -239 118 -29 225 4 239 73 5 26 -10 90 -34 152 l-13 32 -88 0 c-48 0 -88 -4 -88 -9 0 -5 9 -31 20 -57 12 -26 19 -53 16 -61 -8 -20 -40 -15 -63 10 -23 25 -174 361 -177 392 -1 14 6 21 25 23 31 4 49 -16 78 -88 13 -30 28 -61 33 -67 12 -15 178 -18 178 -3 0 5 -14 40 -32 77 -40 84 -127 176 -184 193 -53 16 -182 22 -221 9z"/>
 <path d="M3193 5939 c-71 -21 -81 -104 -28 -224 15 -33 35 -78 45 -100 10 -22 32 -73 49 -113 59 -141 130 -210 245 -239 118 -29 225 4 239 73 5 26 -10 90 -34 152 l-13 32 -88 0 c-48 0 -88 -4 -88 -9 0 -5 9 -31 20 -57 12 -26 19 -53 16 -61 -8 -20 -40 -15 -63 10 -23 25 -174 361 -177 392 -1 14 6 21 25 23 31 4 49 -16 78 -88 13 -30 28 -61 33 -67 12 -15 178 -18 178 -3 0 5 -14 40 -32 77 -40 84 -127 176 -184 193 -53 16 -182 22 -221 9z"/>
 <path d="M1940 4845 l0 -25 2573 2 2572 3 3 23 3 22 -2575 0 -2576 0 0 -25z"/>
 </g>
<g id="layer114" fill="#e7eff4" stroke="none">
 <path d="M0 3880 l0 -3880 3765 0 3765 0 0 3880 0 3880 -3765 0 -3765 0 0 -3880z m7330 3849 c54 -24 134 -99 163 -154 l22 -40 3 -3632 c2 -3624 2 -3632 -18 -3686 -25 -67 -96 -141 -165 -173 l-50 -24 -3519 0 -3518 0 -52 26 c-64 32 -126 92 -157 152 l-24 47 -3 3625 c-2 3210 0 3630 13 3670 26 79 114 171 190 198 21 7 1069 11 3550 11 3517 1 3520 1 3565 -20z"/>
 <path d="M592 6188 l3 -23 2570 0 2570 0 3 23 3 22 -2576 0 -2576 0 3 -22z"/>
 <path d="M1480 6050 c0 -6 18 -48 40 -95 22 -47 40 -87 40 -91 0 -6 13 -35 81 -184 12 -25 26 -58 33 -75 7 -16 22 -50 34 -75 12 -25 22 -49 22 -53 0 -4 16 -42 35 -85 64 -140 50 -127 143 -130 75 -3 100 5 72 23 -5 3 -10 15 -10 25 0 17 7 15 57 -17 63 -40 135 -51 166 -24 31 25 22 101 -23 196 -22 47 -40 87 -40 91 0 6 -37 90 -80 179 -10 22 -21 50 -25 62 -3 11 -31 49 -63 82 -55 60 -59 62 -117 67 -54 6 -62 4 -82 -17 -11 -13 -23 -33 -25 -44 l-5 -20 -8 20 c-4 11 -18 43 -30 70 -13 28 -28 62 -34 78 -10 27 -12 27 -96 27 -51 0 -85 -4 -85 -10z m382 -295 c16 -33 35 -73 42 -90 7 -16 22 -50 33 -75 55 -122 83 -194 76 -201 -5 -4 -21 -5 -36 -2 -25 5 -35 19 -77 107 -64 134 -120 272 -120 294 0 57 46 38 82 -33z"/>
 <path d="M3540 6054 c0 -3 6 -18 14 -32 8 -15 20 -42 26 -59 10 -26 18 -33 39 -33 57 0 51 15 176 -495 21 -82 42 -156 47 -162 7 -9 39 -13 95 -13 77 0 84 2 77 18 -4 9 -20 55 -36 102 -15 47 -32 94 -37 105 -5 11 -17 45 -26 75 -16 52 -27 80 -61 159 -8 18 -13 36 -10 38 5 5 11 -7 78 -137 21 -41 61 -115 87 -165 27 -49 58 -110 70 -135 12 -24 27 -48 34 -52 17 -11 155 -10 161 1 3 5 -3 20 -14 34 -11 14 -20 28 -20 32 0 4 -16 30 -35 56 -19 27 -35 52 -35 56 0 3 -11 21 -25 39 -14 18 -25 36 -25 39 0 4 -13 25 -28 48 -73 109 -92 138 -92 144 0 3 -11 21 -25 39 -14 18 -25 35 -25 39 0 12 -102 152 -140 193 -27 29 -57 48 -88 58 -46 13 -182 20 -182 8z"/>
 <path d="M1114 5942 c-34 -12 -69 -45 -83 -78 -13 -34 -2 -89 36 -175 l17 -39 94 0 94 0 -16 25 c-9 14 -19 45 -22 69 -6 38 -4 46 15 55 40 22 121 -46 121 -102 0 -22 -37 -97 -49 -97 -8 0 -67 -78 -90 -120 -60 -110 79 -330 238 -377 110 -32 235 -17 268 33 19 30 19 92 0 136 -8 18 -20 48 -27 66 l-12 32 -89 0 c-49 0 -89 -3 -89 -8 0 -4 6 -16 13 -27 8 -11 17 -34 20 -51 10 -52 -26 -69 -83 -39 -21 11 -31 25 -36 51 -8 45 12 90 84 187 28 37 53 80 57 95 6 31 -9 122 -26 155 -47 88 -128 163 -210 193 -48 17 -192 27 -225 16z"/>
 <path d="M2163 5939 c-41 -12 -63 -43 -63 -89 0 -35 36 -145 64 -198 8 -15 23 -47 34 -72 10 -25 25 -58 33 -75 7 -16 16 -37 19 -45 15 -42 77 -121 115 -149 121 -87 329 -72 348 25 5 26 -19 120 -42 160 -5 11 -20 45 -32 77 l-23 57 -131 0 -130 0 -16 33 c-63 128 -71 167 -31 167 23 0 50 -31 81 -92 l24 -48 83 0 c48 0 84 4 84 10 0 14 -59 121 -79 144 -73 83 -228 127 -338 95z m347 -483 c12 -30 19 -60 15 -65 -18 -30 -76 4 -93 54 -5 17 -13 38 -17 48 -6 14 -1 17 33 17 39 0 40 -1 62 -54z"/>
 <path d="M2673 5939 c-41 -12 -63 -43 -63 -89 0 -35 36 -145 64 -198 8 -15 23 -47 34 -72 10 -25 25 -58 33 -75 7 -16 16 -37 19 -45 15 -42 77 -121 115 -149 90 -65 243 -78 311 -26 40 31 46 65 24 136 -32 98 -33 99 -127 99 -46 0 -83 -4 -83 -9 0 -5 9 -31 20 -57 22 -51 20 -74 -5 -74 -21 0 -65 30 -65 44 0 7 -11 37 -26 67 -32 69 -62 136 -79 174 -7 17 -22 53 -35 82 -24 55 -22 83 8 83 24 0 51 -32 80 -95 13 -27 27 -57 32 -65 5 -11 28 -16 84 -18 64 -2 77 0 83 14 7 18 -32 102 -75 161 -67 94 -230 146 -349 112z"/>
 <path d="M3193 5939 c-41 -12 -63 -43 -63 -89 0 -35 36 -145 64 -198 8 -15 23 -47 34 -72 10 -25 25 -58 33 -75 7 -16 16 -37 19 -45 15 -42 77 -121 115 -149 90 -65 243 -78 311 -26 40 31 46 65 24 136 -32 98 -33 99 -127 99 -46 0 -83 -4 -83 -9 0 -5 9 -31 20 -57 22 -51 20 -74 -5 -74 -21 0 -65 30 -65 44 0 7 -11 37 -26 67 -32 69 -62 136 -79 174 -7 17 -22 53 -35 82 -24 55 -22 83 8 83 24 0 51 -32 80 -95 13 -27 27 -57 32 -65 5 -11 28 -16 84 -18 64 -2 77 0 83 14 7 18 -32 102 -75 161 -67 94 -230 146 -349 112z"/>
 <path d="M1942 4848 l3 -23 2570 0 2570 0 3 23 3 22 -2576 0 -2576 0 3 -22z"/>
 </g>

</svg>